# xmcd CD database file
#
# Track frame offsets:
#	150
#	20160
#	43522
#
# Disc length: 811 seconds
#
# Revision: 4
# Processed by: cddbd v1.4PL0 Copyright (c) Steve Scherf et al.
# Submitted via: CDex 1.40Release
#
DISCID=1f032903
DTITLE=The Corrs - What Can I Do
DYEAR=1900
DGENRE=
TTITLE0=What Can I Do
TTITLE1=Little Wing
TTITLE2=No Good For Me (LIVE)
EXTD=
EXTT0=
EXTT1=
EXTT2=
PLAYORDER=
